<mxfile host="app.diagrams.net" modified="2023-04-20T15:11:51.941Z" agent="Mozilla/5.0 (X11; Linux x86_64) AppleWebKit/537.36 (KHTML, like Gecko) Chrome/111.0.0.0 Safari/537.36" etag="irXy-f6n2hcN8dvz3RaW" version="21.2.1" type="github">
  <diagram name="Page-1" id="03018318-947c-dd8e-b7a3-06fadd420f32">
    <mxGraphModel dx="1434" dy="775" grid="0" gridSize="10" guides="1" tooltips="1" connect="1" arrows="1" fold="1" page="1" pageScale="1" pageWidth="1100" pageHeight="850" background="#D0D0D0" math="0" shadow="0">
      <root>
        <mxCell id="0" />
        <mxCell id="1" parent="0" />
        <mxCell id="677b7b8949515195-1" value="" style="whiteSpace=wrap;html=1;rounded=0;shadow=0;labelBackgroundColor=none;strokeColor=#000000;strokeWidth=1;fillColor=none;fontFamily=Verdana;fontSize=12;fontColor=#000000;align=center;comic=1;" parent="1" vertex="1">
          <mxGeometry x="20" y="20" width="1060" height="810" as="geometry" />
        </mxCell>
        <mxCell id="677b7b8949515195-2" value="JUGAR" style="whiteSpace=wrap;html=1;rounded=0;shadow=0;labelBackgroundColor=none;strokeWidth=1;fontFamily=Verdana;fontSize=28;align=center;comic=1;fillColor=#FFE599;" parent="1" vertex="1">
          <mxGeometry x="455" y="560" width="190" height="50" as="geometry" />
        </mxCell>
        <mxCell id="677b7b8949515195-11" value="INTRUCCIONES" style="text;html=1;points=[];align=center;verticalAlign=top;spacingTop=-4;fontSize=36;fontFamily=Verdana;fontStyle=1" parent="1" vertex="1">
          <mxGeometry x="390" y="190" width="320" height="65" as="geometry" />
        </mxCell>
        <mxCell id="677b7b8949515195-14" value="&lt;font style=&quot;font-size: 28px;&quot;&gt;1. Dale a jugar&lt;br&gt;2. Escribe tu nombre&lt;br&gt;3. Selecciona tu categoria&lt;br&gt;4. Â¡Diviertete!&lt;/font&gt;" style="text;html=1;points=[];align=left;verticalAlign=top;spacingTop=-4;fontSize=14;fontFamily=Verdana" parent="1" vertex="1">
          <mxGeometry x="390" y="307" width="320" height="180" as="geometry" />
        </mxCell>
        <mxCell id="2JrgQSQiBuFQ2-WZRsfN-1" value="VOLVER" style="whiteSpace=wrap;html=1;rounded=0;shadow=0;labelBackgroundColor=none;strokeWidth=1;fontFamily=Verdana;fontSize=28;align=center;comic=1;" vertex="1" parent="1">
          <mxGeometry x="455" y="660" width="190" height="50" as="geometry" />
        </mxCell>
      </root>
    </mxGraphModel>
  </diagram>
</mxfile>
